<svg xmlns="http://www.w3.org/2000/svg" viewBox="0 0 142 145">
<!-- SVG created with Arrow, by QuiverAI (https://quiver.ai) -->
  <style type="text/css">.cls-0 {fill:#0077FF;}
.cls-1 {fill:none;stroke:#FFFFFF;stroke-width:0.4005;stroke-miterlimit:10;}
.cls-2 {fill:#FEF8F1;}</style>
  <path class="cls-0" d="m106.6 0.7h-70.7c-9.9 0-16.9 1.4-23 6.3-7.4 5.8-12.5 14.4-12.5 29v72.8c0 11.2 2.9 17.8 7.6 23.8 5.4 6.7 12.9 12.1 28 12.3h70.6c9.5 0 17-1.7 23.3-6.5 6.8-5.3 12-13.3 12-27.6v-72.8c0-13.8-3.3-20.9-9.5-27.1-5.6-5.5-12.8-10.2-25.8-10.2z"/>
  <line fill="none" stroke="#FFFFFF" stroke-width="1.35" stroke-opacity="0.72" stroke-miterlimit="10" x1=".3" x2="70.1" y1="49.9" y2="49.9"/>
  <line fill="none" stroke="#FFFFFF" stroke-width="1.35" stroke-opacity="0.72" stroke-miterlimit="10" x1=".3" x2="64.2" y1="60.8" y2="60.8"/>
  <line fill="none" stroke="#FFFFFF" stroke-width="1.35" stroke-opacity="0.72" stroke-miterlimit="10" x1=".3" x2="58.2" y1="71.2" y2="71.2"/>
  <line fill="none" stroke="#FFFFFF" stroke-width="1.35" stroke-opacity="0.72" stroke-miterlimit="10" x1=".3" x2="39.9" y1="81.4" y2="81.4"/>
  <line fill="none" stroke="#FFFFFF" stroke-width="1.35" stroke-opacity="0.72" stroke-miterlimit="10" x1=".3" x2="32.8" y1="91.5" y2="91.5"/>
  <line fill="none" stroke="#FFFFFF" stroke-width="1.35" stroke-opacity="0.72" stroke-miterlimit="10" x1="94.3" x2="141.9" y1="49.9" y2="49.9"/>
  <line fill="none" stroke="#FFFFFF" stroke-width="1.35" stroke-opacity="0.72" stroke-miterlimit="10" x1="95.8" x2="141.9" y1="60.8" y2="60.8"/>
  <line fill="none" stroke="#FFFFFF" stroke-width="1.35" stroke-opacity="0.72" stroke-miterlimit="10" x1="97.6" x2="141.9" y1="71.2" y2="71.2"/>
  <line fill="none" stroke="#FFFFFF" stroke-width="1.35" stroke-opacity="0.72" stroke-miterlimit="10" x1="99.7" x2="141.9" y1="81.4" y2="81.4"/>
  <line fill="none" stroke="#FFFFFF" stroke-width="1.35" stroke-opacity="0.72" stroke-miterlimit="10" x1="102.3" x2="141.9" y1="91.5" y2="91.5"/>
  <path class="cls-2" d="m119.8 117.5c-5.3-0.5-10.7-2.8-15.6-20.4-4.6-16.2-9.6-39-12.5-75.1-0.1-1.7-3.2-1-4.9 1.2-3.9 5.4-12.8 18.3-19.8 30l-10.6 21.1c-10 1.1-24.5 7.9-24.6 21.9 0 4.4 2.6 10.8 8.6 11.5l0.1-0.1c-3.5-0.7-5.8-4-5.8-9.2 0-7 7.4-20.4 25.2-20.4 11 0 19 3.4 27.2 7.7l4.5 2.6c2.4 12.1 4.2 17.3 4 22.1-0.3 5.2-3.5 6.8-7.9 7.1-0.6 0.1-0.6 1.4 0 1.4h32.4c0.6-0.1 0.6-1.3-0.3-1.4zm-59.8-43.6 3.8-7c6.4-11.8 15.6-27.5 20.1-34.9 1.1 18 3.5 35.4 6.7 52.1-6.7-4.8-15.3-10.4-27-10.3l-3.6 0.1z"/>
  <path class="cls-2" d="m55.3 80.2-15.4 33.1c-0.9-2.5-4.5-4.6-9.2-3.5-4.6 1-9.6 4.9-8.9 9.1 0.8 4.9 7.3 5.9 12.3 3.7 2.4-1.1 4.4-2.8 5.5-5l12.5-27c2.8 3.3 5.2 6.1 5 11.1-0.1 3.2-2.6 7.9-8.1 11.4-0.2 0.8 4 0 8.1-5.2 3.1-4.3 4-9 1.3-15.9-1.5-3.6-3.5-7.4-1.8-11.6-0.1-0.5-1.1-0.8-1.3-0.2z"/>
</svg>